<?xml version="1.0" encoding="UTF-8"?>
<svg version="1.1" xmlns="http://www.w3.org/2000/svg" width="500" height="500">
<path d="M0 0 C0 0.66 0 1.32 0 2 C-0.67353516 2.10022461 -1.34707031 2.20044922 -2.04101562 2.30371094 C-18.75293415 4.81562507 -34.86952267 7.88167546 -51 13 C-43.8591102 12.61400596 -36.9848045 12.16840733 -30.04296875 10.41015625 C-26.67126633 9.73323703 -23.42748981 9.87536401 -20 10 C-22.08374513 12.08374513 -23.09702464 12.51892259 -25.82421875 13.41015625 C-26.59886475 13.67344727 -27.37351074 13.93673828 -28.17163086 14.20800781 C-29.41698608 14.63098145 -29.41698608 14.63098145 -30.6875 15.0625 C-41.47011424 18.8627028 -50.88855886 24.09185091 -60 31 C-58.91058105 30.9779248 -57.82116211 30.95584961 -56.69873047 30.93310547 C-52.63909767 30.86413484 -48.58159441 30.86127748 -44.52148438 30.87792969 C-42.7677923 30.87598833 -41.01402388 30.85634605 -39.26074219 30.81835938 C-24.74435467 30.5217703 -24.74435467 30.5217703 -20.65722656 33.98535156 C-19.07055161 36.61083613 -17.99185669 39.09960167 -17 42 C-15.15585783 47.0418988 -13.61976046 50.11114907 -8.78515625 52.76416016 C-4.76951303 54.50492743 -0.64453138 55.91422592 3.5 57.3125 C5.62964255 58.05756093 7.75557035 58.81162034 9.87854004 59.57548523 C11.80159639 60.26334747 13.73361515 60.92600118 15.66601562 61.5871582 C20.07935123 63.45739642 22.90302614 65.39209731 25.61599731 69.3686676 C27.63963831 74.6782766 27.41761943 79.6710943 27.38818359 85.30761719 C27.39606903 87.16216774 27.39606903 87.16216774 27.40411377 89.05418396 C27.41503133 92.43214933 27.41250767 95.80956124 27.40297651 99.18749523 C27.39536521 102.72463394 27.40242897 106.2617495 27.40713501 109.79888916 C27.41258544 115.73364497 27.40541675 121.66828858 27.39111328 127.60302734 C27.37475795 134.46850181 27.38009886 141.3337094 27.3965925 148.1991775 C27.4101919 154.09569486 27.41213555 159.99213175 27.40427649 165.88865972 C27.39959528 169.40983412 27.39898789 172.93088288 27.40888596 176.45204926 C27.41913535 180.37145945 27.40494363 184.2905685 27.38818359 188.20996094 C27.39425629 189.38088791 27.40032898 190.55181488 27.40658569 191.75822449 C27.39389648 193.35223839 27.39389648 193.35223839 27.38095093 194.97845459 C27.37981985 195.90535976 27.37868877 196.83226494 27.37752342 197.78725815 C27.25294069 198.51746296 27.12835796 199.24766777 27 200 C23.77208445 202.1519437 22.71599191 202.20086443 19 202 C18.64421875 203.94132812 18.64421875 203.94132812 18.28125 205.921875 C17.11166632 211.15228595 15.03846626 215.5547589 12.5 220.25 C12.05640137 221.07701416 11.61280273 221.90402832 11.15576172 222.75610352 C-2.87013376 248.25885766 -25.930799 266.71674383 -53.44921875 275.97265625 C-59.56754678 277.74286557 -65.71502882 278.96337846 -72 280 C-72.79792969 280.13277344 -73.59585938 280.26554687 -74.41796875 280.40234375 C-97.36383937 283.54502397 -120.87518339 278.09151824 -141 267 C-137.8699274 265.22004675 -135.18590683 264.59061631 -131.625 264.140625 C-130.56708252 263.9977002 -129.50916504 263.85477539 -128.41918945 263.70751953 C-127.29085693 263.55653809 -126.16252441 263.40555664 -125 263.25 C-105.7388652 260.47075801 -87.35810784 254.88881957 -70 246 C-77.52993517 246.34296161 -83.71689767 248.09878376 -90.6875 250.875 C-113.57067754 259.59120271 -113.57067754 259.59120271 -121 257 C-116.67280082 255.08798176 -112.31636738 253.38119311 -107.875 251.75 C-91.94124558 245.62163292 -74.71292194 235.88502676 -67 220 C-67.64923935 220.00222061 -68.2984787 220.00444122 -68.96739197 220.00672913 C-75.69887748 220.02878002 -82.43035281 220.04390577 -89.16186523 220.05493164 C-91.67716895 220.05997363 -94.19246972 220.06680703 -96.70776367 220.07543945 C-100.31429775 220.08751094 -103.92079323 220.09322949 -107.52734375 220.09765625 C-109.22575661 220.10539818 -109.22575661 220.10539818 -110.95848083 220.11329651 C-112.51998619 220.11340981 -112.51998619 220.11340981 -114.11303711 220.11352539 C-115.03459091 220.115746 -115.95614471 220.11796661 -116.90562439 220.12025452 C-119 220 -119 220 -120 219 C-120.19187844 213.53146437 -119.71637108 208.41826698 -119 203 C-120.78857422 202.94392578 -120.78857422 202.94392578 -122.61328125 202.88671875 C-124.179719 202.82105968 -125.74612384 202.75461232 -127.3125 202.6875 C-128.49102539 202.65366211 -128.49102539 202.65366211 -129.69335938 202.61914062 C-130.45068359 202.58369141 -131.20800781 202.54824219 -131.98828125 202.51171875 C-132.68477783 202.48553467 -133.38127441 202.45935059 -134.09887695 202.43237305 C-136.66420914 201.84893869 -137.51812642 201.18215618 -139 199 C-139.30541992 196.15600586 -139.30541992 196.15600586 -139.23046875 192.71484375 C-139.22982422 191.46123047 -139.22917969 190.20761719 -139.22851562 188.91601562 C-139.20145089 186.29073664 -139.15498467 183.66557667 -139.08789062 181.04101562 C-139.12611206 172.72148424 -140.26841317 168.34152232 -145.95288086 162.21069336 C-148.86442992 159.06649816 -150.74559989 155.60537361 -152.6875 151.8125 C-153.25138428 150.72521606 -153.25138428 150.72521606 -153.82666016 149.6159668 C-166.87605959 123.74546196 -169.68177224 92.96332308 -161.23754883 65.21801758 C-158.65602219 57.40919776 -154.96175072 50.18576803 -151 43 C-150.4946875 42.06414062 -149.989375 41.12828125 -149.46875 40.1640625 C-137.61314379 19.28502267 -119.41068295 5.77300846 -98 -4 C-97.12988281 -4.40992187 -96.25976562 -4.81984375 -95.36328125 -5.2421875 C-64.93527786 -18.57058287 -29.03077098 -14.69209453 0 0 Z M-106 48 C-106.66 49.32 -107.32 50.64 -108 52 C-107.01 51.34 -106.02 50.68 -105 50 C-105.33 49.34 -105.66 48.68 -106 48 Z M-110 53 C-109 55 -109 55 -109 55 Z " fill="#232321" transform="translate(306,87)"/>
<path d="M0 0 C0 0.66 0 1.32 0 2 C-0.67353516 2.10022461 -1.34707031 2.20044922 -2.04101562 2.30371094 C-18.75293415 4.81562507 -34.86952267 7.88167546 -51 13 C-43.8591102 12.61400596 -36.9848045 12.16840733 -30.04296875 10.41015625 C-26.67126633 9.73323703 -23.42748981 9.87536401 -20 10 C-22.08374513 12.08374513 -23.09702464 12.51892259 -25.82421875 13.41015625 C-26.59886475 13.67344727 -27.37351074 13.93673828 -28.17163086 14.20800781 C-29.41698608 14.63098145 -29.41698608 14.63098145 -30.6875 15.0625 C-41.50520936 18.87507165 -50.82708911 24.12031684 -60 31 C-41.685 31.495 -41.685 31.495 -23 32 C-23 32.33 -23 32.66 -23 33 C-44.78 33.33 -66.56 33.66 -89 34 C-91.97 39.61 -94.94 45.22 -98 51 C-102.92743573 53.46371786 -107.20999933 55.56627188 -112.29296875 57.3671875 C-113.41767578 57.77839844 -114.54238281 58.18960938 -115.70117188 58.61328125 C-118.03327666 59.45728108 -120.36928837 60.29055953 -122.70898438 61.11328125 C-123.82982422 61.52707031 -124.95066406 61.94085938 -126.10546875 62.3671875 C-127.11762451 62.72925293 -128.12978027 63.09131836 -129.17260742 63.46435547 C-132.7488234 65.40670919 -135.13540916 67.39533367 -137 71 C-137.74458682 75.14093194 -137.69023526 79.23281183 -137.65942383 83.43115234 C-137.67514938 85.30515213 -137.67514938 85.30515213 -137.69119263 87.2170105 C-137.71500527 90.63021675 -137.71687981 94.04209763 -137.70889878 97.45528746 C-137.70576831 101.02681412 -137.73082377 104.59814206 -137.75285339 108.16958618 C-137.79026949 114.92678888 -137.80243992 121.68379034 -137.8054778 128.44108641 C-137.8101713 136.13646006 -137.84310387 143.83163244 -137.87837565 151.52691722 C-137.9502765 167.35126366 -137.9868215 183.1754891 -138 199 C-138.33 199 -138.66 199 -139 199 C-138.98839844 198.17387207 -138.97679687 197.34774414 -138.96484375 196.49658203 C-138.94044191 193.38316827 -138.95243205 190.2724451 -138.98779297 187.15917969 C-138.99973838 185.16859558 -138.97102529 183.17789958 -138.94140625 181.1875 C-139.06775214 172.84867147 -140.26533344 168.34640826 -145.95947266 162.20410156 C-148.86784413 159.06258713 -150.74744306 155.60177356 -152.6875 151.8125 C-153.25138428 150.72521606 -153.25138428 150.72521606 -153.82666016 149.6159668 C-166.87605959 123.74546196 -169.68177224 92.96332308 -161.23754883 65.21801758 C-158.65602219 57.40919776 -154.96175072 50.18576803 -151 43 C-150.4946875 42.06414062 -149.989375 41.12828125 -149.46875 40.1640625 C-137.61314379 19.28502267 -119.41068295 5.77300846 -98 -4 C-97.12988281 -4.40992187 -96.25976562 -4.81984375 -95.36328125 -5.2421875 C-64.93527786 -18.57058287 -29.03077098 -14.69209453 0 0 Z M-106 48 C-106.66 49.32 -107.32 50.64 -108 52 C-107.01 51.34 -106.02 50.68 -105 50 C-105.33 49.34 -105.66 48.68 -106 48 Z M-110 53 C-109 55 -109 55 -109 55 Z " fill="#3BCA85" transform="translate(306,87)"/>
<path d="M0 0 C6.27 0 12.54 0 19 0 C19 0.33 19 0.66 19 1 C17.35 1 15.7 1 14 1 C13.64421875 2.94132812 13.64421875 2.94132812 13.28125 4.921875 C12.11166632 10.15228595 10.03846626 14.5547589 7.5 19.25 C7.05640137 20.07701416 6.61280273 20.90402832 6.15576172 21.75610352 C-7.87013376 47.25885766 -30.930799 65.71674383 -58.44921875 74.97265625 C-64.56754678 76.74286557 -70.71502882 77.96337846 -77 79 C-77.79792969 79.13277344 -78.59585938 79.26554687 -79.41796875 79.40234375 C-102.36383937 82.54502397 -125.87518339 77.09151824 -146 66 C-142.8699274 64.22004675 -140.18590683 63.59061631 -136.625 63.140625 C-135.56708252 62.9977002 -134.50916504 62.85477539 -133.41918945 62.70751953 C-132.29085693 62.55653809 -131.16252441 62.40555664 -130 62.25 C-110.7388652 59.47075801 -92.35810784 53.88881957 -75 45 C-82.52993517 45.34296161 -88.71689767 47.09878376 -95.6875 49.875 C-118.57067754 58.59120271 -118.57067754 58.59120271 -126 56 C-121.67280082 54.08798176 -117.31636738 52.38119311 -112.875 50.75 C-96.79342864 44.56478025 -79.93416706 34.86833412 -72 19 C-89.16 19 -106.32 19 -124 19 C-124.33 18.34 -124.66 17.68 -125 17 C-83.09 17 -41.18 17 2 17 C1.36990559 11.32915028 0.70771089 5.6616871 0 0 Z " fill="#3BCA85" transform="translate(311,288)"/>
<path d="M0 0 C1.30517578 2.49902344 1.30517578 2.49902344 2.4453125 5.859375 C3.0935498 7.72940186 3.0935498 7.72940186 3.75488281 9.63720703 C4.21189455 11.00803604 4.66859226 12.37896978 5.125 13.75 C5.60624965 15.15660057 6.08901701 16.56268271 6.57324219 17.96826172 C7.57139188 20.87346652 8.56037329 23.7815518 9.54199219 26.69238281 C10.90412145 30.72727574 12.29432184 34.75189697 13.6953125 38.7734375 C17.84428668 50.70232606 21.93689875 62.64833275 25.84472656 74.65869141 C26.1022168 75.4429248 26.35970703 76.2271582 26.625 77.03515625 C26.95371094 78.04654663 26.95371094 78.04654663 27.2890625 79.07836914 C27.96841281 81.0554046 27.96841281 81.0554046 29.0859375 82.99780273 C30 85 30 85 30 89 C17.13 89 4.26 89 -9 89 C-9.5775 85.535 -10.155 82.07 -10.75 78.5 C-12.39132938 68.86542398 -14.42792903 59.42636647 -17 50 C-18.65 50 -20.3 50 -22 50 C-21.53146626 54.77904412 -20.70804615 59.22549554 -19.5 63.875 C-17.49696769 72.17048504 -17.27645669 80.50610661 -17 89 C-19.475 89.99 -19.475 89.99 -22 91 C-22 98.26 -22 105.52 -22 113 C-20.02 113.33 -18.04 113.66 -16 114 C-16.14238837 116.04190981 -16.28907028 118.08352045 -16.4375 120.125 C-16.51871094 121.26195312 -16.59992188 122.39890625 -16.68359375 123.5703125 C-16.97514671 126.73060263 -17.47824525 129.86947148 -18 133 C-23.28 133 -28.56 133 -34 133 C-34.09258111 117.4230716 -34.16397071 101.84621457 -34.20724869 86.2690773 C-34.22787723 79.03638597 -34.25600311 71.80386868 -34.30175781 64.57128906 C-34.341617 58.26762773 -34.3674307 51.96409245 -34.37635398 45.6603086 C-34.38157052 42.32211357 -34.3959296 38.98456461 -34.42292023 35.64643097 C-34.45185375 31.92064311 -34.45596005 28.19560824 -34.45410156 24.46972656 C-34.47567322 22.80816528 -34.47567322 22.80816528 -34.49768066 21.11303711 C-34.49218201 20.09783997 -34.48668335 19.08264282 -34.48101807 18.03668213 C-34.48470524 17.15544804 -34.48839241 16.27421394 -34.49219131 15.36627579 C-33.83420989 12.20294178 -32.45685506 11.03097354 -30 9 C-25.80254794 6.90238089 -21.38889387 5.34166553 -17 3.6875 C-15.21722656 2.98657227 -15.21722656 2.98657227 -13.3984375 2.27148438 C-12.25632813 1.83513672 -11.11421875 1.39878906 -9.9375 0.94921875 C-8.37322266 0.35113403 -8.37322266 0.35113403 -6.77734375 -0.2590332 C-2.51685797 -1.39568707 -2.51685797 -1.39568707 0 0 Z " fill="#F9F9F7" transform="translate(209,148)"/>
<path d="M0 0 C6.6755778 0.74806239 12.5654137 3.39131517 18.75 5.875 C19.89855469 6.32230469 21.04710937 6.76960937 22.23046875 7.23046875 C23.32488281 7.66746094 24.41929687 8.10445312 25.546875 8.5546875 C27.04492676 9.14999268 27.04492676 9.14999268 28.57324219 9.75732422 C31 11 31 11 33 14 C33.24609566 16.24322796 33.24609566 16.24322796 33.24050903 18.91642761 C33.24325836 19.93025009 33.24600769 20.94407257 33.24884033 21.98861694 C33.24164978 23.09991974 33.23445923 24.21122253 33.22705078 25.35620117 C33.22734283 26.52706772 33.22763489 27.69793427 33.22793579 28.90428162 C33.22678049 32.11481492 33.21674407 35.3251743 33.20278788 38.5356729 C33.19029264 41.89090581 33.18911097 45.24614207 33.18673706 48.60139465 C33.18051873 54.95495229 33.16410317 61.30844118 33.14403808 67.66196853 C33.12169003 74.89526443 33.11068841 82.1285636 33.10064721 89.36188543 C33.07973723 104.24129625 33.04415196 119.12063869 33 134 C27.72 134 22.44 134 17 134 C14.85714286 120.875 14.85714286 120.875 15 115 C17.97 114.505 17.97 114.505 21 114 C21 106.74 21 99.48 21 92 C19.35 91.34 17.7 90.68 16 90 C15.61045437 82.22315427 16.76304958 75.25027601 18.5 67.6875 C18.97331937 65.58826463 19.44223784 63.48803098 19.90625 61.38671875 C20.11572266 60.47108154 20.32519531 59.55544434 20.54101562 58.61206055 C20.99707415 56.01665086 21.08307513 53.62903125 21 51 C19.35 51 17.7 51 16 51 C12.13373389 63.83271305 10.0934378 76.76648246 8 90 C-4.21 90 -16.42 90 -29 90 C-30.12497051 83.25017692 -30.12497051 83.25017692 -28.42041016 78.49902344 C-28.04896881 77.44221375 -27.67752747 76.38540405 -27.29483032 75.29656982 C-26.88042694 74.16229553 -26.46602356 73.02802124 -26.0390625 71.859375 C-25.61507172 70.66435364 -25.19108093 69.46933228 -24.75424194 68.23809814 C-23.61997705 65.04852051 -22.47407736 61.86364054 -21.32202148 58.68048096 C-20.18866851 55.54152987 -19.06950588 52.39753973 -17.94921875 49.25390625 C-16.62202011 45.53088556 -15.29323541 41.80849716 -13.95758057 38.08850098 C-10.46689445 28.36118009 -7.07520227 18.60326937 -3.74746704 8.81903076 C-3.39945038 7.80270569 -3.05143372 6.78638062 -2.69287109 5.73925781 C-2.23658829 4.39725311 -2.23658829 4.39725311 -1.77108765 3.02813721 C-1 1 -1 1 0 0 Z " fill="#F0F9F3" transform="translate(292,147)"/>
<path d="M0 0 C10.89 0 21.78 0 33 0 C34.375 10.875 34.375 10.875 34.79443359 14.23779297 C35.51391118 19.83582475 36.39951636 25.33636373 37.61962891 30.84814453 C38 33 38 33 38 37 C1.7 37 -34.6 37 -72 37 C-71.41119174 31.70072562 -70.81532512 26.47652581 -70.02734375 21.21484375 C-69.86741943 20.14097412 -69.70749512 19.06710449 -69.54272461 17.96069336 C-69.34300049 16.63303955 -69.14327637 15.30538574 -68.9375 13.9375 C-68.298125 9.668125 -67.65875 5.39875 -67 1 C-56.11 1 -45.22 1 -34 1 C-35.98 5.62 -37.96 10.24 -40 15 C-39.44976372 19.16248562 -39.44976372 19.16248562 -36.234375 20.73828125 C-35.08453125 21.25777344 -33.9346875 21.77726562 -32.75 22.3125 C-31.61046875 22.84488281 -30.4709375 23.37726563 -29.296875 23.92578125 C-25.88276961 25.03819711 -24.31835445 25.30131547 -21 24 C-19.14083176 21.03292954 -19.14083176 21.03292954 -18 18 C-17.34 18 -16.68 18 -16 18 C-13 23.75 -13 23.75 -13 26 C-6.63079071 24.70256848 -0.36622111 22.78669014 5 19 C6.14575622 17.25522528 6.14575622 17.25522528 6 15 C4.80591242 11.74012245 4.80591242 11.74012245 3.0625 8.375 C0 2.16628702 0 2.16628702 0 0 Z " fill="#FBFCFA" transform="translate(267,262)"/>
<path d="M0 0 C2.5625 -0.25 2.5625 -0.25 5 0 C5.495 0.495 5.495 0.495 6 1 C5.63615006 8.51956544 4.05680876 15.6749884 2.45141602 23.00463867 C1.22795015 28.67071272 0.37986126 34.20711573 0 40 C0.804375 40.144375 1.60875 40.28875 2.4375 40.4375 C5 41 5 41 6 42 C6.0991657 43.62257544 6.13079777 45.24939831 6.1328125 46.875 C6.13410156 47.85984375 6.13539063 48.8446875 6.13671875 49.859375 C6.13285156 50.89578125 6.12898438 51.9321875 6.125 53 C6.12886719 54.03640625 6.13273437 55.0728125 6.13671875 56.140625 C6.13542969 57.12546875 6.13414062 58.1103125 6.1328125 59.125 C6.13168457 60.03507812 6.13055664 60.94515625 6.12939453 61.8828125 C6 64 6 64 5 65 C3.00041636 65.04080783 0.99954746 65.04254356 -1 65 C-0.855625 65.78503906 -0.71125 66.57007813 -0.5625 67.37890625 C-0.376875 68.42949219 -0.19125 69.48007812 0 70.5625 C0.2784375 72.11130859 0.2784375 72.11130859 0.5625 73.69140625 C1 77 1 77 1 84 C6.61 84 12.22 84 18 84 C18 66.84 18 49.68 18 32 C20 36 20 36 20.4375 39.625 C20.7159375 41.295625 20.7159375 41.295625 21 43 C22.485 43.99 22.485 43.99 24 45 C24.36076355 46.98684692 24.36076355 46.98684692 24.34057617 49.44970703 C24.34034958 50.37051056 24.34012299 51.29131409 24.33988953 52.24002075 C24.32440567 53.23589203 24.30892181 54.23176331 24.29296875 55.2578125 C24.28872391 56.27600067 24.28447906 57.29418884 24.28010559 58.3432312 C24.26327579 61.60408673 24.22561546 64.86433041 24.1875 68.125 C24.17245874 70.33202234 24.15876937 72.53905434 24.14648438 74.74609375 C24.11590652 80.16448943 24.05719232 85.58155767 24 91 C17.07 91 10.14 91 3 91 C3.495 92.69125 3.99 94.3825 4.5 96.125 C5.6099778 100.1879376 6.4465926 103.75737031 6 108 C5 109 5 109 2.22227478 109.12025452 C0.98095291 109.11803391 -0.26036896 109.11581329 -1.53930664 109.11352539 C-2.22220261 109.11367142 -2.90509857 109.11381744 -3.60868835 109.1139679 C-5.87587614 109.11326876 -8.14298274 109.1054764 -10.41015625 109.09765625 C-11.97814387 109.09579207 -13.54613207 109.09436817 -15.11412048 109.09336853 C-19.24876503 109.08954334 -23.38337466 109.07971306 -27.51800537 109.06866455 C-31.73400398 109.05845044 -35.95000822 109.05387091 -40.16601562 109.04882812 C-48.44402647 109.03809079 -56.7220089 109.02101436 -65 109 C-64.01 107.02 -63.02 105.04 -62 103 C-42.2 103 -22.4 103 -2 103 C-2.99 99.7 -3.98 96.4 -5 93 C-5.62596843 89.99122995 -6.20222846 87.02854612 -6.6875 84 C-6.81487549 83.22543457 -6.94225098 82.45086914 -7.07348633 81.65283203 C-7.94888186 76.04349002 -8.27498795 70.68308432 -8 65 C-9.98 65 -11.96 65 -14 65 C-13.67 56.75 -13.34 48.5 -13 40 C-11.35 40 -9.7 40 -8 40 C-7.98582031 39.25621094 -7.97164063 38.51242188 -7.95703125 37.74609375 C-7.5992247 29.55522495 -6.29606562 21.81593014 -4.5625 13.8125 C-4.34505127 12.79663818 -4.12760254 11.78077637 -3.90356445 10.73413086 C-2.2592804 3.38892061 -2.2592804 3.38892061 0 0 Z " fill="#0B2115" transform="translate(308,197)"/>
<path d="M0 0 C10.89 0 21.78 0 33 0 C31.02 4.62 29.04 9.24 27 14 C27.55023628 18.16248562 27.55023628 18.16248562 30.765625 19.73828125 C31.91546875 20.25777344 33.0653125 20.77726562 34.25 21.3125 C35.38953125 21.84488281 36.5290625 22.37726563 37.703125 22.92578125 C41.11723039 24.03819711 42.68164555 24.30131547 46 23 C47.85916824 20.03292954 47.85916824 20.03292954 49 17 C49.66 17 50.32 17 51 17 C52.20233317 23.94681388 51.6547204 28.3736074 47.79605103 34.30639648 C44.76283746 37.16659426 41.68083892 36.90875375 37.65776062 36.90637207 C36.5680043 36.86508179 35.47824799 36.8237915 34.35546875 36.78125 C33.2305452 36.76993042 32.10562164 36.75861084 30.9466095 36.74694824 C27.3584971 36.70221308 23.77440142 36.60184465 20.1875 36.5 C17.75331297 36.45986981 15.31906322 36.42336826 12.88476562 36.390625 C6.92180985 36.3024873 0.96119182 36.16867644 -5 36 C-4.43698718 30.72173734 -3.81366977 25.46547234 -3.02734375 20.21484375 C-2.86741943 19.14097412 -2.70749512 18.06710449 -2.54272461 16.96069336 C-2.34300049 15.63303955 -2.14327637 14.30538574 -1.9375 12.9375 C-1.298125 8.668125 -0.65875 4.39875 0 0 Z " fill="#FCFCFA" transform="translate(200,263)"/>
<path d="M0 0 C0.99 0 1.98 0 3 0 C11.98497151 17.70230557 15 35.16923985 15 55 C4.44 55 -6.12 55 -17 55 C-18.12505738 48.24965572 -18.12505738 48.24965572 -16.56884766 43.9284668 C-16.23164703 42.97115158 -15.89444641 42.01383636 -15.54702759 41.0275116 C-15.17314911 40.01167496 -14.79927063 38.99583832 -14.4140625 37.94921875 C-14.03768646 36.89466995 -13.66131042 35.84012115 -13.27352905 34.75361633 C-12.07027751 31.39343547 -10.84757536 28.04069164 -9.625 24.6875 C-8.80868632 22.41124069 -7.99356806 20.13455229 -7.1796875 17.85742188 C-5.68994975 13.71064211 -4.20010452 9.56395 -2.68994141 5.42456055 C-2.23574326 4.17596504 -2.23574326 4.17596504 -1.77236938 2.90214539 C-1 1 -1 1 0 0 Z " fill="#FBFCF9" transform="translate(280,182)"/>
<path d="M0 0 C11.88 0 23.76 0 36 0 C30.25364008 18.38835175 30.25364008 18.38835175 27.88671875 25.65625 C27.49780205 26.85417175 27.49780205 26.85417175 27.10102844 28.07629395 C26.29734503 30.55113195 25.49245394 33.02557499 24.6875 35.5 C24.13208003 37.20960896 23.57674108 38.91924425 23.02148438 40.62890625 C21.68191905 44.75290682 20.34127301 48.87655453 19 53 C18.34 53 17.68 53 17 53 C16.78303467 52.2769165 16.56606934 51.55383301 16.3425293 50.80883789 C13.35126767 40.95486569 10.09354509 31.19794465 6.8125 21.4375 C5.73393074 18.22844706 4.65738822 15.01872435 3.58203125 11.80859375 C3.21486748 10.71954994 3.21486748 10.71954994 2.84028625 9.60850525 C1.77148799 6.41764525 0.81695633 3.2678253 0 0 Z " fill="#FBFBF9" transform="translate(232,149)"/>
<path d="M0 0 C28.05 0.33 56.1 0.66 85 1 C63.14336796 26.49940405 63.14336796 26.49940405 48.6875 27.625 C41.697009 28.34517421 35.54043375 30.4275699 29 32.9375 C6.41082591 41.58475148 6.41082591 41.58475148 -1 39 C3.32719918 37.08798176 7.68363262 35.38119311 12.125 33.75 C28.20657136 27.56478025 45.06583294 17.86833412 53 2 C35.84 2 18.68 2 1 2 C0.67 1.34 0.34 0.68 0 0 Z " fill="#A9A5A4" transform="translate(186,305)"/>
<path d="M0 0 C0.33 0.99 0.66 1.98 1 3 C1.99 3.33 2.98 3.66 4 4 C4 4.66 4 5.32 4 6 C4.66 6 5.32 6 6 6 C7.53190797 9.06381594 7.10243613 12.26965866 7.0625 15.625 C7.041875 18.05875 7.02125 20.4925 7 23 C12.28 23 17.56 23 23 23 C23 21.02 23 19.04 23 17 C23.33 17 23.66 17 24 17 C24 18.65 24 20.3 24 22 C25.98 22.66 27.96 23.32 30 24 C29.68853528 25.89600369 29.37578283 27.79179587 29.0625 29.6875 C28.80146484 31.27111328 28.80146484 31.27111328 28.53515625 32.88671875 C28.06886987 35.59934828 27.53979276 38.30103618 27 41 C63.3 41 99.6 41 137 41 C137.33 40.34 137.66 39.68 138 39 C138 39.99 138 40.98 138 42 C136.8824659 42.00213753 136.8824659 42.00213753 135.74235535 42.00431824 C128.72336145 42.02214304 121.70500604 42.0637398 114.68635082 42.13209057 C111.07784389 42.16639191 107.46976168 42.19147523 103.86108398 42.19555664 C100.37882085 42.19983318 96.89751628 42.22823915 93.41555214 42.27343178 C91.43974054 42.29275582 89.46373576 42.28704304 87.48783875 42.28105164 C86.28682022 42.30069473 85.0858017 42.32033783 83.84838867 42.34057617 C82.78915695 42.34723801 81.72992523 42.35389984 80.63859558 42.36076355 C77.76046618 42.72909255 77.76046618 42.72909255 76.46932983 45.50474548 C75.98445099 46.32817947 75.49957214 47.15161346 75 48 C72.56468201 48.60800171 72.56468201 48.60800171 69.64233398 48.58349609 C68.5478746 48.58634613 67.45341522 48.58919617 66.32579041 48.59213257 C65.14449051 48.5694632 63.96319061 48.54679382 62.74609375 48.5234375 C61.53429947 48.51873444 60.32250519 48.51403137 59.07398987 48.50918579 C55.19458775 48.48779257 51.31653876 48.43113798 47.4375 48.375 C44.81837219 48.35850003 42.19922988 48.34415013 39.58007812 48.33203125 C34.79596753 48.29801409 30.01199587 48.26328263 25.22827148 48.19287109 C24.26469223 48.18001068 23.30111298 48.16715027 22.30833435 48.15390015 C20 48 20 48 18 47 C17.89325505 41.87624251 18.32798213 37.07982013 19 32 C17.79601562 31.93941406 16.59203125 31.87882812 15.3515625 31.81640625 C13.77602923 31.73200268 12.20050904 31.64735459 10.625 31.5625 C9.8309375 31.52318359 9.036875 31.48386719 8.21875 31.44335938 C2.2265625 31.11328125 2.2265625 31.11328125 0 30 C0 20.1 0 10.2 0 0 Z " fill="#333431" transform="translate(168,258)"/>
<path d="M0 0 C1.66360701 1.42594887 3.32624712 2.85283033 4.984375 4.28515625 C6.29048626 5.39636331 7.61274607 6.48897136 8.953125 7.55859375 C12.58714156 10.49787185 14.45179535 12.48440311 16 17 C16.99 17.33 17.98 17.66 19 18 C19.6875 20.0625 19.6875 20.0625 20 22 C20.66 22 21.32 22 22 22 C23.2890625 23.75 23.2890625 23.75 24.625 26 C25.07101562 26.7425 25.51703125 27.485 25.9765625 28.25 C26.48316406 29.11625 26.48316406 29.11625 27 30 C26.38125 30.20367187 25.7625 30.40734375 25.125 30.6171875 C22.03119406 32.63043622 21.8890504 34.57673636 21 38.125 C20.84047852 38.75865479 20.68095703 39.39230957 20.51660156 40.04516602 C18.07630048 50.23330411 16.59901784 60.65394327 15 71 C13.35 71 11.7 71 10 71 C9.95512451 70.43192627 9.91024902 69.86385254 9.86401367 69.27856445 C8.60580119 53.77732396 6.15277895 39.72222556 1 25 C0.41368626 23.25099629 -0.16995099 21.50109135 -0.75 19.75 C-1.1625 18.5125 -1.575 17.275 -2 16 C-2.99 16 -3.98 16 -5 16 C-4.54548816 14.26982492 -4.08621143 12.54090123 -3.625 10.8125 C-3.36976563 9.84957031 -3.11453125 8.88664063 -2.8515625 7.89453125 C-2.05233704 5.17789793 -1.0968638 2.60862825 0 0 Z " fill="#E1F6EB" transform="translate(285,166)"/>
<path d="M0 0 C6.53691252 1.17897886 13.59788614 2.82992049 18.0625 8.0625 C20.64052575 11.97111969 21.12477157 14.60640308 21.12025452 19.18217468 C21.12162918 20.25489624 21.12300385 21.3276178 21.12442017 22.43284607 C21.12082489 23.60960403 21.11722961 24.786362 21.11352539 25.9987793 C21.11367142 27.23792084 21.11381744 28.47706238 21.1139679 29.75375366 C21.11339015 33.15225172 21.10837098 36.55068921 21.10139394 39.94917655 C21.09514741 43.50060584 21.09455557 47.05203591 21.09336853 50.60346985 C21.09025905 57.32886993 21.08205082 64.05425377 21.07201904 70.77964669 C21.06084601 78.43615843 21.05534445 86.09267093 21.05032361 93.74918878 C21.0398679 109.49946859 21.02227586 125.2497322 21 141 C20.67 141 20.34 141 20 141 C19.98541748 139.68281982 19.97083496 138.36563965 19.95581055 137.00854492 C19.89789287 132.12740762 19.82065964 127.24673482 19.73754883 122.3659668 C19.70426872 120.25243664 19.67624647 118.13881694 19.65356445 116.02514648 C19.62007528 112.98903194 19.56776236 109.95374025 19.51171875 106.91796875 C19.50532883 105.97100632 19.4989389 105.02404388 19.49235535 104.04838562 C19.47256119 103.16769913 19.45276703 102.28701263 19.43237305 101.37963867 C19.42126999 100.60464523 19.41016693 99.82965179 19.39872742 99.03117371 C19.19120446 96.90829668 19.19120446 96.90829668 17.53547668 95.66377258 C16 94 16 94 15 87 C14.67 102.84 14.34 118.68 14 135 C13.67 135 13.34 135 13 135 C12.99761165 134.3843175 12.99522329 133.76863501 12.99276257 133.13429546 C12.93365804 118.16183082 12.85813743 103.18954706 12.76428509 88.21726513 C12.71929595 80.97680808 12.67988861 73.73640056 12.65356445 66.49584961 C12.63060947 60.18587969 12.59723977 53.8760661 12.55129844 47.5662201 C12.52733213 44.22435666 12.50862585 40.88264837 12.50238609 37.54070091 C12.49280876 33.81229799 12.46482522 30.08446512 12.43237305 26.35620117 C12.43452568 24.68924698 12.43452568 24.68924698 12.4367218 22.98861694 C12.42418365 21.97479446 12.41164551 20.96097198 12.39872742 19.91642761 C12.39411845 19.03427173 12.38950949 18.15211584 12.38476086 17.24322796 C11.91469001 14.50262678 11.18444946 13.67238877 9 12 C6.80271171 11.02859609 4.56833132 10.13889365 2.3125 9.3125 C1.13300781 8.87550781 -0.04648437 8.43851563 -1.26171875 7.98828125 C-2.16535156 7.66214844 -3.06898438 7.33601562 -4 7 C-3.34 6.67 -2.68 6.34 -2 6 C-2.33 5.01 -2.66 4.02 -3 3 C-2.01 3 -1.02 3 0 3 C0 2.01 0 1.02 0 0 Z " fill="#454643" transform="translate(312,146)"/>
<path d="M0 0 C-0.309375 0.5775 -0.61875 1.155 -0.9375 1.75 C-2.09513453 3.88766558 -2.09513453 3.88766558 -2.22265625 5.9765625 C-3 8 -3 8 -5.46875 9.4140625 C-6.4690625 9.81367188 -7.469375 10.21328125 -8.5 10.625 C-12.51205697 11.95584946 -12.51205697 11.95584946 -15 15 C-15.10338543 16.40609612 -15.14644166 17.81687249 -15.15821838 19.22671509 C-15.1680072 20.11295059 -15.17779602 20.9991861 -15.18788147 21.91227722 C-15.19363693 22.88691422 -15.1993924 23.86155121 -15.20532227 24.86572266 C-15.21522186 25.89013962 -15.22512146 26.91455658 -15.23532104 27.97001648 C-15.26699755 31.36800803 -15.29171778 34.76601357 -15.31640625 38.1640625 C-15.33697047 40.51533377 -15.35796679 42.86660129 -15.37937927 45.21786499 C-15.43465493 51.41565934 -15.48403996 57.61348735 -15.53222656 63.81134033 C-15.58240152 70.13206998 -15.63810846 76.45275055 -15.69335938 82.7734375 C-15.80100813 95.18224978 -15.90243815 107.59110461 -16 120 C-16.33 119.34 -16.66 118.68 -17 118 C-17.66 118 -18.32 118 -19 118 C-21.34869747 116.02709413 -22.00102287 114.99693138 -23 112 C-23.10002168 110.63259191 -23.14764609 109.26095349 -23.16062927 107.88995361 C-23.1706749 107.05453033 -23.18072052 106.21910706 -23.19107056 105.35836792 C-23.19690155 104.44507721 -23.20273254 103.5317865 -23.20874023 102.59082031 C-23.21852402 101.62626923 -23.2283078 100.66171814 -23.23838806 99.66793823 C-23.26833716 96.47134787 -23.28972588 93.27479931 -23.30859375 90.078125 C-23.31516558 88.98635704 -23.3217374 87.89458908 -23.32850838 86.76973724 C-23.36109944 80.99103592 -23.38555128 75.21235303 -23.4050293 69.43359375 C-23.42284591 64.65141998 -23.45767307 59.86983546 -23.50756836 55.08789062 C-23.56774712 49.31368637 -23.59850196 43.54002874 -23.60820198 37.76552582 C-23.61676135 35.56628816 -23.63559117 33.3670653 -23.6649456 31.1680069 C-23.70385996 28.08694309 -23.70489445 25.00800906 -23.69702148 21.92675781 C-23.71702209 21.02156403 -23.73702271 20.11637024 -23.75762939 19.18374634 C-23.69255412 13.49937894 -22.54047728 10.49476944 -18.60919285 6.35583115 C-16.07871045 4.22376422 -13.48209017 3.14306883 -10.375 2.0625 C-9.26898438 1.66160156 -8.16296875 1.26070312 -7.0234375 0.84765625 C-4 0 -4 0 0 0 Z " fill="#071E11" transform="translate(191,146)"/>
<path d="M0 0 C-2.08374513 2.08374513 -3.09702464 2.51892259 -5.82421875 3.41015625 C-6.98618774 3.80509277 -6.98618774 3.80509277 -8.17163086 4.20800781 C-9.00186768 4.48999023 -9.83210449 4.77197266 -10.6875 5.0625 C-21.50520936 8.87507165 -30.82708911 14.12031684 -40 21 C-21.685 21.495 -21.685 21.495 -3 22 C-3 22.33 -3 22.66 -3 23 C-24.78 23.33 -46.56 23.66 -69 24 C-71.97 29.61 -74.94 35.22 -78 41 C-86 45 -86 45 -89 45 C-87.007945 40.32300131 -83.53100137 37.09794951 -80.09375 33.4375 C-77.98295668 31.20398153 -77.98295668 31.20398153 -77.0625 28.9765625 C-71.88945266 19.35317296 -56.34494242 12.907175 -47.03857422 8.06152344 C-45.25738514 7.13402522 -43.48885872 6.18229066 -41.72265625 5.2265625 C-36.53386811 2.59214271 -33.39642842 1.6809029 -27.71484375 2.80078125 C-23.13934681 3.13653714 -18.75898895 2.04453762 -14.29052734 1.11669922 C-9.42762213 0.13510236 -4.96426077 -0.13960238 0 0 Z " fill="#F6F4F1" transform="translate(286,97)"/>
<path d="M0 0 C0.33 0 0.66 0 1 0 C1.05945801 0.57218262 1.11891602 1.14436523 1.18017578 1.73388672 C2.48247251 13.74715438 4.51566076 24.73869592 8.63671875 36.1015625 C10.28677922 40.66329909 11.22794665 45.21326922 12 50 C13.98 50.33 15.96 50.66 18 51 C17.85761163 53.04190981 17.71092972 55.08352045 17.5625 57.125 C17.48128906 58.26195312 17.40007812 59.39890625 17.31640625 60.5703125 C17.02485329 63.73060263 16.52175475 66.86947148 16 70 C10.72 70 5.44 70 0 70 C0 46.9 0 23.8 0 0 Z " fill="#E3F7EC" transform="translate(175,211)"/>
<path d="M0 0 C10.89 0 21.78 0 33 0 C34.375 10.875 34.375 10.875 34.79443359 14.23779297 C35.51391118 19.83582475 36.39951636 25.33636373 37.61962891 30.84814453 C38 33 38 33 38 37 C28.76 37 19.52 37 10 37 C11.175625 35.040625 12.35125 33.08125 13.5625 31.0625 C16.79110941 25.52297033 19.50347578 19.86789119 21.9375 13.9375 C22.23148682 13.22408447 22.52547363 12.51066895 22.82836914 11.77563477 C24.28105188 8.14242144 25.22654598 4.86727012 26 1 C17.42 1 8.84 1 0 1 C0 0.67 0 0.34 0 0 Z " fill="#DDF1E6" transform="translate(267,262)"/>
<path d="M0 0 C-9.3080321 11.57214802 -21.56321672 24.66325508 -36.9375 26.4375 C-39.29101519 26.63300757 -41.6451419 26.82139349 -44 27 C-45.67222175 27.3042422 -47.3420691 27.62562851 -49 28 C-45.98937217 25.61421945 -42.87930423 23.81683023 -39.5 22 C-34.72165809 19.24281494 -30.65933626 16.22112518 -26.625 12.5 C-26.11300049 12.02908936 -25.60100098 11.55817871 -25.07348633 11.07299805 C-22.36113652 8.50436662 -20.21816107 5.93124115 -18.1875 2.8125 C-14.22826264 -2.27275899 -5.77893288 -0.46319691 0 0 Z " fill="#F5F4F0" transform="translate(270,307)"/>
<path d="M0 0 C0.33 0.99 0.66 1.98 1 3 C1.99 3.33 2.98 3.66 4 4 C4 4.66 4 5.32 4 6 C4.66 6 5.32 6 6 6 C7.53190797 9.06381594 7.10243613 12.26965866 7.0625 15.625 C7.041875 18.05875 7.02125 20.4925 7 23 C11.95 23 16.9 23 22 23 C22.33 23.66 22.66 24.32 23 25 C22.34 25 21.68 25 21 25 C20.67 26.65 20.34 28.3 20 30 C13.4 30 6.8 30 0 30 C0 20.1 0 10.2 0 0 Z " fill="#232421" transform="translate(168,258)"/>
<path d="M0 0 C28.05 0.33 56.1 0.66 85 1 C85 1.33 85 1.66 85 2 C83.97261719 1.93296875 82.94523437 1.8659375 81.88671875 1.796875 C73.07455787 1.5211677 73.07455787 1.5211677 65.59375 5.6328125 C62.80491792 8.56309725 60.40653464 11.75315801 58 15 C57.02473336 16.02413621 56.03788033 17.0393729 55 18 C53.02 17.34 51.04 16.68 49 16 C48.67 16.66 48.34 17.32 48 18 C47.505 16.02 47.505 16.02 47 14 C47.66 13.67 48.32 13.34 49 13 C49.144375 12.278125 49.28875 11.55625 49.4375 10.8125 C50 8 50 8 53 2 C35.84 2 18.68 2 1 2 C0.67 1.34 0.34 0.68 0 0 Z " fill="#A8A7A4" transform="translate(186,305)"/>
<path d="M0 0 C-1 3 -1 3 -3.80859375 4.578125 C-5.00613281 5.12984375 -6.20367187 5.6815625 -7.4375 6.25 C-14.074981 9.31009003 -18.73921109 12.61744776 -25 17 C-6.685 17.495 -6.685 17.495 12 18 C12 18.33 12 18.66 12 19 C-5.49 19 -22.98 19 -41 19 C-31.19222919 9.19222919 -14.21827435 -0.39495207 0 0 Z " fill="#BCBBB7" transform="translate(271,101)"/>
<path d="M0 0 C9.57 0 19.14 0 29 0 C28 2 27 4 26 6 C16.43 6 6.86 6 -3 6 C-2.01 4.02 -1.02 2.04 0 0 Z " fill="#212320" transform="translate(246,300)"/>
<path d="M0 0 C6.56319244 1.18371864 13.59676201 2.86149523 18.125 8.0625 C20 11 20 11 20 14 C18.68 13.67 17.36 13.34 16 13 C15.67 13.66 15.34 14.32 15 15 C14.01 15 13.02 15 12 15 C11.58105469 14.56042969 11.16210938 14.12085938 10.73046875 13.66796875 C8.25114387 11.27819059 5.52786605 10.49040638 2.3125 9.3125 C1.13300781 8.87550781 -0.04648437 8.43851563 -1.26171875 7.98828125 C-2.16535156 7.66214844 -3.06898438 7.33601562 -4 7 C-3.34 6.67 -2.68 6.34 -2 6 C-2.33 5.01 -2.66 4.02 -3 3 C-2.01 3 -1.02 3 0 3 C0 2.01 0 1.02 0 0 Z " fill="#3D3C3A" transform="translate(312,146)"/>
<path d="M0 0 C1.1875 2.75 1.1875 2.75 2 6 C1 8.3125 1 8.3125 -1 10 C-2.99984127 10.33428432 -4.99987355 10.66742628 -7 11 C-9.47393424 11.80786932 -11.93256938 12.66386986 -14.375 13.5625 C-15.33599609 13.91344727 -15.33599609 13.91344727 -16.31640625 14.27148438 C-17.8793161 14.84299619 -19.43990727 15.42084229 -21 16 C-20.45276317 12.62537285 -19.9451 10.91765 -18 8 C-18.66 7.67 -19.32 7.34 -20 7 C-18.86820313 6.57847656 -17.73640625 6.15695313 -16.5703125 5.72265625 C-15.08852006 5.16932869 -13.60675041 4.61594011 -12.125 4.0625 C-11.37863281 3.78470703 -10.63226563 3.50691406 -9.86328125 3.22070312 C-1.24887048 0 -1.24887048 0 0 0 Z " fill="#262A26" transform="translate(209,138)"/>
<path d="M0 0 C0.66 1.32 1.32 2.64 2 4 C3.258125 3.690625 4.51625 3.38125 5.8125 3.0625 C6.52019531 2.88847656 7.22789062 2.71445312 7.95703125 2.53515625 C9.65683202 2.08989295 11.33301954 1.55566015 13 1 C12.54363464 2.396478 12.08480512 3.7921508 11.625 5.1875 C11.24214844 6.35345703 11.24214844 6.35345703 10.8515625 7.54296875 C9.98008898 10.05744968 8.9883515 12.52912126 8 15 C3.38 15 -1.24 15 -6 15 C-5.195625 13.63875 -4.39125 12.2775 -3.5625 10.875 C-1.52716955 7.23555318 -0.32427882 4.21562465 0 0 Z " fill="#EDEDED" transform="translate(252,284)"/>
<path d="M0 0 C11.88113077 0.72741617 23.42457268 5.83321118 34 11 C34 11.66 34 12.32 34 13 C30.02141997 13.64948119 26.04203771 14.293915 22.0625 14.9375 C20.94552734 15.11990234 19.82855469 15.30230469 18.67773438 15.49023438 C12.46056873 16.49300303 6.26602638 17.36874602 0 18 C0 17.34 0 16.68 0 16 C1.7634375 15.814375 1.7634375 15.814375 3.5625 15.625 C6.43672226 15.27460895 8.87392848 14.7481901 11.6875 13.9375 C14.67606916 13.09167854 16.92667107 12.81373764 20 13 C19.26935245 10.02030024 19.26935245 10.02030024 17 7 C11.71504595 4.28129768 5.90620777 2.63850895 0 2 C0 1.34 0 0.68 0 0 Z " fill="#6FD2A1" transform="translate(272,76)"/>
<path d="M0 0 C0.99 0.33 1.98 0.66 3 1 C3 16.18 3 31.36 3 47 C1.02 47 -0.96 47 -3 47 C-2.52879437 43.62939397 -2.04640432 40.26758698 -1.46484375 36.9140625 C0.50211777 24.64605063 0.19118586 12.39031438 0 0 Z " fill="#1F241F" transform="translate(329,241)"/>
<path d="M0 0 C8.57142857 -0.14285714 8.57142857 -0.14285714 12 1 C12 2.65 12 4.3 12 6 C11.34 6 10.68 6 10 6 C9.67 7.65 9.34 9.3 9 11 C8.34 11 7.68 11 7 11 C6.67 13.64 6.34 16.28 6 19 C4.68 19 3.36 19 2 19 C2.04125 17.906875 2.0825 16.81375 2.125 15.6875 C2.14420838 10.33796618 1.07503069 5.22157765 0 0 Z " fill="#3AC482" transform="translate(311,288)"/>
<path d="M0 0 C0 0.66 0 1.32 0 2 C-1.98 2.66 -3.96 3.32 -6 4 C-6.04898438 4.66386719 -6.09796875 5.32773438 -6.1484375 6.01171875 C-6.22320312 6.89472656 -6.29796875 7.77773437 -6.375 8.6875 C-6.44460937 9.55761719 -6.51421875 10.42773438 -6.5859375 11.32421875 C-7 14 -7 14 -7.9375 16.21875 C-9.49980602 20.30831576 -9.9938733 24.49443417 -10.625 28.8125 C-10.7590625 29.69615234 -10.893125 30.57980469 -11.03125 31.49023438 C-11.3595571 33.6594063 -11.68229876 35.82925378 -12 38 C-12.33 38 -12.66 38 -13 38 C-13.09905303 33.65842948 -13.17155301 29.31746146 -13.21972656 24.97509766 C-13.23981301 23.4987441 -13.26708801 22.02246981 -13.30175781 20.54638672 C-13.35041184 18.42135038 -13.37299673 16.29736766 -13.390625 14.171875 C-13.41157227 12.8940918 -13.43251953 11.61630859 -13.45410156 10.29980469 C-12.92327689 6.44247871 -12.03068805 5.34360001 -9 3 C-6.19471739 1.41389084 -3.2660967 0 0 0 Z " fill="#DFF4E9" transform="translate(188,154)"/>
<path d="M0 0 C0.66 0.33 1.32 0.66 2 1 C1.67 1.66 1.34 2.32 1 3 C2.32 3.66 3.64 4.32 5 5 C1.32836721 7.44775519 -2.33301837 8.62220083 -6.5 10 C-7.30646973 10.2669165 -8.11293945 10.53383301 -8.94384766 10.80883789 C-24.80342724 15.93819741 -24.80342724 15.93819741 -31 14 C-26.63170626 12.06982369 -22.23035495 10.34293508 -17.75 8.6875 C-12.22682226 6.59954726 -7.21563045 4.053508 -2.14453125 1.0390625 C-1.43683594 0.69617188 -0.72914063 0.35328125 0 0 Z " fill="#B9B6B5" transform="translate(216,330)"/>
<path d="M0 0 C5.46875 3.7109375 5.46875 3.7109375 7 5 C7 5.66 7 6.32 7 7 C9.475 7.99 9.475 7.99 12 9 C12 9.66 12 10.32 12 11 C13.32 11.33 14.64 11.66 16 12 C16 12.99 16 13.98 16 15 C10.72 15 5.44 15 0 15 C0 10.05 0 5.1 0 0 Z " fill="#FCFDFB" transform="translate(175,266)"/>
<path d="M0 0 C1.32 0.33 2.64 0.66 4 1 C3.34 1.66 2.68 2.32 2 3 C1.01 4.485 1.01 4.485 0 6 C-0.66 6 -1.32 6 -2 6 C-2 37.68 -2 69.36 -2 102 C-2.33 102 -2.66 102 -3 102 C-3.06945939 89.29150491 -3.12279069 76.58305486 -3.15543652 63.87440872 C-3.17110355 57.97349603 -3.19236096 52.07271304 -3.22631836 46.171875 C-3.2588745 40.47901888 -3.2768452 34.78628766 -3.28463173 29.09334564 C-3.29018195 26.91958398 -3.30101995 24.74582927 -3.31719017 22.57212067 C-3.3389144 19.53132769 -3.34196899 16.49105319 -3.34057617 13.45019531 C-3.351362 12.54820404 -3.36214783 11.64621277 -3.3732605 10.71688843 C-3.34279011 4.58374612 -3.34279011 4.58374612 -1.47871399 1.40936279 C-0.99073837 0.94427307 -0.50276276 0.47918335 0 0 Z " fill="#00270D" transform="translate(171,154)"/>
<path d="M0 0 C0.79921875 0.00902344 1.5984375 0.01804687 2.421875 0.02734375 C3.02515625 0.03894531 3.6284375 0.05054688 4.25 0.0625 C4.25 0.3925 4.25 0.7225 4.25 1.0625 C-15.13308767 5.12298872 -32.27168935 6.06783193 -51.75 2.0625 C-51.75 1.7325 -51.75 1.4025 -51.75 1.0625 C-50.46834961 1.06773682 -49.18669922 1.07297363 -47.86621094 1.07836914 C-43.11019591 1.09647207 -38.35418392 1.10795142 -33.59814453 1.11743164 C-31.53987109 1.12245973 -29.48160122 1.12928306 -27.42333984 1.13793945 C-24.46450926 1.15007166 -21.50572592 1.15574357 -18.546875 1.16015625 C-17.62694763 1.16531754 -16.70702026 1.17047882 -15.75921631 1.17579651 C-14.46833099 1.17590981 -14.46833099 1.17590981 -13.15136719 1.17602539 C-12.01885529 1.17935631 -12.01885529 1.17935631 -10.86346436 1.18275452 C-7.12809428 0.9702148 -3.80134581 -0.05590214 0 0 Z " fill="#87D7B3" transform="translate(244.75,362.9375)"/>
<path d="M0 0 C4.89730925 0.93544109 8.47500058 3.54726708 12 7 C13.33206705 10.62618252 13.25262502 12.22528327 12.0625 15.875 C11.711875 16.57625 11.36125 17.2775 11 18 C10.34 18 9.68 18 9 18 C8.60167969 17.18015625 8.20335937 16.3603125 7.79296875 15.515625 C7.26316406 14.43796875 6.73335938 13.3603125 6.1875 12.25 C5.66542969 11.18265625 5.14335937 10.1153125 4.60546875 9.015625 C3.11982421 6.03887543 3.11982421 6.03887543 1.30078125 3.734375 C0 2 0 2 0 0 Z " fill="#0B1C12" transform="translate(271,158)"/>
<path d="M0 0 C3.04742745 3.04742745 5 6.87727837 5 11.25 C3.51917965 13.84143561 1.6649826 14.76500806 -1 16 C-1.66 15.67 -2.32 15.34 -3 15 C-3.08142927 13.2507786 -3.13938541 11.50045458 -3.1875 9.75 C-3.22230469 8.77546875 -3.25710938 7.8009375 -3.29296875 6.796875 C-2.96075202 3.62531258 -2.11327721 2.32959693 0 0 Z " fill="#2B2B29" transform="translate(269,268)"/>
<path d="M0 0 C0 0.33 0 0.66 0 1 C-0.99854004 1.01981934 -1.99708008 1.03963867 -3.02587891 1.06005859 C-6.74975732 1.13644264 -10.47326161 1.225108 -14.19677734 1.31738281 C-15.80477482 1.35553759 -17.41285373 1.39041348 -19.02099609 1.421875 C-21.33981316 1.4678206 -23.6580762 1.52576381 -25.9765625 1.5859375 C-26.68930328 1.59748871 -27.40204407 1.60903992 -28.13638306 1.62094116 C-32.45097083 1.74696721 -35.96559828 2.50303243 -40 4 C-42.5546875 4.1953125 -42.5546875 4.1953125 -44.875 4.125 C-45.65617188 4.10695313 -46.43734375 4.08890625 -47.2421875 4.0703125 C-47.82226562 4.04710938 -48.40234375 4.02390625 -49 4 C-45.4172444 1.61149627 -42.09968081 1.06225198 -37.9375 0.375 C-36.74833984 0.17825684 -36.74833984 0.17825684 -35.53515625 -0.02246094 C-23.74027999 -1.81308687 -11.81336372 -1.524305 0 0 Z " fill="#9CDDBD" transform="translate(271,75)"/>
<path d="M0 0 C4.29 0 8.58 0 13 0 C10 5 10 5 8 6 C6.12620395 6.07033769 4.24998898 6.0843022 2.375 6.0625 C1.37210938 6.05347656 0.36921875 6.04445313 -0.6640625 6.03515625 C-1.43492187 6.02355469 -2.20578125 6.01195312 -3 6 C-2.01 4.02 -1.02 2.04 0 0 Z " fill="#171616" transform="translate(246,300)"/>
<path d="M0 0 C0.33 1.32 0.66 2.64 1 4 C0.34 4 -0.32 4 -1 4 C-1.061875 4.53625 -1.12375 5.0725 -1.1875 5.625 C-2.16431507 8.48030558 -3.88045363 10.175109 -5.85546875 12.40625 C-7.56403249 14.78541042 -7.79507005 17.13098071 -8 20 C-8.99 20.33 -9.98 20.66 -11 21 C-12.20882096 23.00016466 -12.20882096 23.00016466 -13 25 C-13.66 25 -14.32 25 -15 25 C-12.28383057 15.75109487 -6.48533062 7.09333037 0 0 Z " fill="#70D1A2" transform="translate(166,114)"/>
<path d="M0 0 C18.48 0.33 36.96 0.66 56 1 C54 6 54 6 51 8 C51.66 6.02 52.32 4.04 53 2 C35.84 2 18.68 2 1 2 C0.67 1.34 0.34 0.68 0 0 Z " fill="#C2BFBB" transform="translate(186,305)"/>
<path d="M0 0 C0 0.66 0 1.32 0 2 C-0.639375 2.28875 -1.27875 2.5775 -1.9375 2.875 C-4.15206079 3.82823451 -4.15206079 3.82823451 -5 6 C-7.29296875 6.78125 -7.29296875 6.78125 -10.1875 7.5 C-13.23670152 8.2770166 -16.16225376 9.05841135 -19.125 10.125 C-23.03534922 11.31510628 -26.93843326 11.65702325 -31 12 C-28.37797139 10.25198092 -26.4750075 9.3650909 -23.54296875 8.37890625 C-22.67736328 8.08306641 -21.81175781 7.78722656 -20.91992188 7.48242188 C-20.01822266 7.17884766 -19.11652344 6.87527344 -18.1875 6.5625 C-12.80232681 4.74924473 -5.40844726 0 0 0 Z " fill="#74D1A3" transform="translate(234,335)"/>
<path d="M0 0 C0.66 0.33 1.32 0.66 2 1 C2 1.66 2 2.32 2 3 C1.01 3 0.02 3 -1 3 C-1 3.99 -1 4.98 -1 6 C-0.34 6 0.32 6 1 6 C1 6.99 1 7.98 1 9 C-3.29 9 -7.58 9 -12 9 C-9.16831603 6.16831603 -7.13787984 4.24075709 -3.875 2.1875 C-3.19179687 1.74792969 -2.50859375 1.30835937 -1.8046875 0.85546875 C-1.20914063 0.57316406 -0.61359375 0.29085937 0 0 Z " fill="#AAA7A6" transform="translate(242,111)"/>
<path d="M0 0 C3.63 0 7.26 0 11 0 C11 0.33 11 0.66 11 1 C9.35 1 7.7 1 6 1 C5.814375 2.19625 5.62875 3.3925 5.4375 4.625 C3.93004079 11.60397782 0.32699615 17.74631472 -3 24 C-3.33 24 -3.66 24 -4 24 C-4 22.35 -4 20.7 -4 19 C-3.34 19 -2.68 19 -2 19 C-1.87625 17.700625 -1.7525 16.40125 -1.625 15.0625 C-1.4140625 12.84765625 -1.4140625 12.84765625 -1 11 C-0.34 10.67 0.32 10.34 1 10 C1.65213292 7.97536745 1.65213292 7.97536745 2 6 C2.66 6 3.32 6 4 6 C4 4.35 4 2.7 4 1 C2.68 0.67 1.36 0.34 0 0 Z " fill="#76CCA1" transform="translate(319,288)"/>
<path d="M0 0 C-1.98 0.99 -3.96 1.98 -6 3 C-6 3.99 -6 4.98 -6 6 C-7.32 6 -8.64 6 -10 6 C-10 6.66 -10 7.32 -10 8 C-13.69541586 8.95024979 -16.30458414 8.95024979 -20 8 C-16.71552577 5.32077287 -13.26922257 3.54598373 -9.4375 1.75 C-8.30183594 1.20859375 -7.16617188 0.6671875 -5.99609375 0.109375 C-3 -1 -3 -1 0 0 Z " fill="#E1F8EA" transform="translate(255,100)"/>
<path d="M0 0 C0.99 0.66 1.98 1.32 3 2 C0.08559401 2.6986179 -2.83086087 3.3842031 -5.75 4.0625 C-6.575 4.26166016 -7.4 4.46082031 -8.25 4.66601562 C-9.04921875 4.84970703 -9.8484375 5.03339844 -10.671875 5.22265625 C-11.77160645 5.48187866 -11.77160645 5.48187866 -12.89355469 5.74633789 C-15.20132783 6.02424428 -16.79916037 5.69809241 -19 5 C-16.67309553 3.98197929 -14.34155947 2.98336679 -12 2 C-11.30519531 1.70222656 -10.61039063 1.40445312 -9.89453125 1.09765625 C-9.20746094 0.81792969 -8.52039063 0.53820312 -7.8125 0.25 C-7.17957031 -0.01296875 -6.54664063 -0.2759375 -5.89453125 -0.546875 C-3.54808111 -1.10808782 -2.2573469 -0.81427343 0 0 Z " fill="#C4C0BF" transform="translate(204,339)"/>
<path d="M0 0 C0.66 0.33 1.32 0.66 2 1 C0.24495933 5.33706387 -2.23574771 6.52220854 -6.22265625 8.65625 C-8.43274038 10.32717075 -8.36306478 11.38960975 -9 14 C-12.5625 15.75 -12.5625 15.75 -16 17 C-13.02550302 10.00118357 -5.98898148 4.44343788 0 0 Z " fill="#76D3A5" transform="translate(183,97)"/>
<path d="M0 0 C0.59296875 0.20238281 1.1859375 0.40476562 1.796875 0.61328125 C-0.26306961 2.22082221 -2.32592976 3.82436175 -4.390625 5.42578125 C-5.2578418 6.10350586 -5.2578418 6.10350586 -6.14257812 6.79492188 C-12.58610818 11.78228694 -12.58610818 11.78228694 -16.203125 13.61328125 C-16.863125 13.28328125 -17.523125 12.95328125 -18.203125 12.61328125 C-18.203125 11.95328125 -18.203125 11.29328125 -18.203125 10.61328125 C-16.883125 10.61328125 -15.563125 10.61328125 -14.203125 10.61328125 C-14.203125 9.62328125 -14.203125 8.63328125 -14.203125 7.61328125 C-12.883125 7.61328125 -11.563125 7.61328125 -10.203125 7.61328125 C-10.203125 6.95328125 -10.203125 6.29328125 -10.203125 5.61328125 C-9.543125 5.61328125 -8.883125 5.61328125 -8.203125 5.61328125 C-8.203125 4.95328125 -8.203125 4.29328125 -8.203125 3.61328125 C-2.99894173 -0.52640999 -2.99894173 -0.52640999 0 0 Z " fill="#79D4A8" transform="translate(291.203125,339.38671875)"/>
<path d="M0 0 C2.66698331 0.73853737 2.66698331 0.73853737 5.5625 -0.5 C7.75 0.75 7.75 0.75 9.5625 2.5 C9.5625 3.49 9.5625 4.48 9.5625 5.5 C8.2425 5.17 6.9225 4.84 5.5625 4.5 C5.2325 5.16 4.9025 5.82 4.5625 6.5 C1.5625 6.5 1.5625 6.5 0.0625 5.1875 C-0.4325 4.630625 -0.9275 4.07375 -1.4375 3.5 C-1.994375 2.943125 -2.55125 2.38625 -3.125 1.8125 C-3.558125 1.379375 -3.99125 0.94625 -4.4375 0.5 C-2.4375 -0.5 -2.4375 -0.5 0 0 Z " fill="#373735" transform="translate(322.4375,154.5)"/>
<path d="M0 0 C-2.36253009 2.36253009 -4.31227271 3.037848 -7.4375 4.1875 C-8.40558594 4.55230469 -9.37367188 4.91710937 -10.37109375 5.29296875 C-13 6 -13 6 -16 5 C-16.33 4.01 -16.66 3.02 -17 2 C-11.19233704 0.4943096 -6.0018137 -0.21824777 0 0 Z " fill="#DCD8D5" transform="translate(286,97)"/>
<path d="M0 0 C-2.64 0.99 -5.28 1.98 -8 3 C-7.01 4.485 -7.01 4.485 -6 6 C-7.98 6.99 -7.98 6.99 -10 8 C-10.33 7.34 -10.66 6.68 -11 6 C-13.64 6 -16.28 6 -19 6 C-16.44761309 3.44761309 -13.982213 2.62898015 -10.625 1.3125 C-8.91183594 0.62607422 -8.91183594 0.62607422 -7.1640625 -0.07421875 C-4 -1 -4 -1 0 0 Z " fill="#70D3A2" transform="translate(222,80)"/>
<path d="M0 0 C1.1875 2.75 1.1875 2.75 2 6 C0.875 8.375 0.875 8.375 -1 10 C-2.32 10 -3.64 10 -5 10 C-4.67 9.01 -4.34 8.02 -4 7 C-3.01 7 -2.02 7 -1 7 C-1 6.01 -1 5.02 -1 4 C-2.65 4.33 -4.3 4.66 -6 5 C-6.33 4.01 -6.66 3.02 -7 2 C-2.25 0 -2.25 0 0 0 Z " fill="#322F2F" transform="translate(209,138)"/>
<path d="M0 0 C2.33364352 2.92903058 4.04960836 5.88568203 5.6875 9.25 C6.34298828 10.58804688 6.34298828 10.58804688 7.01171875 11.953125 C7.33785156 12.62859375 7.66398437 13.3040625 8 14 C6.0625 13.6875 6.0625 13.6875 4 13 C3.67 12.01 3.34 11.02 3 10 C2.34 10 1.68 10 1 10 C-0.20628008 7.66785852 -1.1654738 5.50357861 -2 3 C-1.34 2.01 -0.68 1.02 0 0 Z " fill="#53504D" transform="translate(286,125)"/>
<path d="M0 0 C0.33 0 0.66 0 1 0 C1 1.98 1 3.96 1 6 C1.66 6 2.32 6 3 6 C2.67 7.32 2.34 8.64 2 10 C2.66 10 3.32 10 4 10 C4.66 11.98 5.32 13.96 6 16 C6.66 16 7.32 16 8 16 C7.67 17.65 7.34 19.3 7 21 C2.75246878 15.67809323 -1.16490302 9.24309268 -0.8125 2.3125 C-0.544375 1.549375 -0.27625 0.78625 0 0 Z " fill="#7AD5A8" transform="translate(148,219)"/>
<path d="M0 0 C0.66 0.33 1.32 0.66 2 1 C0.68 1.99 -0.64 2.98 -2 4 C0.97 4.33 3.94 4.66 7 5 C7 5.33 7 5.66 7 6 C6.10796875 5.979375 5.2159375 5.95875 4.296875 5.9375 C0.70562843 6.00078188 -2.50217954 6.16553851 -6 7 C-8.28355244 9.40561315 -9.22070527 11.80270667 -10 15 C-11.1171875 11.296875 -11.1171875 11.296875 -10.0625 8.625 C-7.22473512 5.01329925 -3.75800088 2.59757306 0 0 Z " fill="#D7E8DB" transform="translate(223,114)"/>
<path d="M0 0 C0.99 0.33 1.98 0.66 3 1 C3.94921875 3.28515625 3.94921875 3.28515625 4.6875 6.0625 C4.93886719 6.98160156 5.19023437 7.90070313 5.44921875 8.84765625 C5.63097656 9.55792969 5.81273437 10.26820313 6 11 C3.83125748 10.49396008 2.00032373 10.00016187 0 9 C0 6.03 0 3.06 0 0 Z " fill="#0E1A14" transform="translate(192,271)"/>
<path d="M0 0 C0.66 0.33 1.32 0.66 2 1 C1.3125 3.375 1.3125 3.375 0 6 C-2.4375 7.125 -2.4375 7.125 -5 8 C-5.495 8.495 -5.99 8.99 -6.5 9.5 C-8.4346384 11.4346384 -10.44465967 12.10217772 -13 13 C-8.66666667 8.66666667 -4.33333333 4.33333333 0 0 Z " fill="#C7C3C0" transform="translate(234,315)"/>
<path d="M0 0 C0.66 0.99 1.32 1.98 2 3 C1.34 3 0.68 3 0 3 C-0.33 6.3 -0.66 9.6 -1 13 C-1.66 13 -2.32 13 -3 13 C-3.12375 13.598125 -3.2475 14.19625 -3.375 14.8125 C-4 17 -4 17 -6 20 C-5.50104522 12.84831485 -2.68436185 6.58708719 0 0 Z " fill="#87D8B1" transform="translate(150,139)"/>
<path d="M0 0 C0.66 0.33 1.32 0.66 2 1 C-0.46153846 5.8 -0.46153846 5.8 -3.1875 6.8125 C-3.785625 6.874375 -4.38375 6.93625 -5 7 C-5 7.99 -5 8.98 -5 10 C-7.375 11.75 -7.375 11.75 -10 13 C-10.66 12.67 -11.32 12.34 -12 12 C-8.04 8.04 -4.08 4.08 0 0 Z " fill="#64C998" transform="translate(270,307)"/>
<path d="M0 0 C0.66 0.33 1.32 0.66 2 1 C3.9959722 1.67863055 5.99568551 2.34641919 8 3 C5.61426621 4.89213369 3.92824652 6.02391783 1 7 C-1.1875 6.0625 -1.1875 6.0625 -3 5 C-2.01 3.35 -1.02 1.7 0 0 Z " fill="#ACA9A7" transform="translate(219,328)"/>
<path d="M0 0 C-0.33 0.99 -0.66 1.98 -1 3 C-1.99 3 -2.98 3 -4 3 C-3.67 3.99 -3.34 4.98 -3 6 C-7.43076923 9.07692308 -7.43076923 9.07692308 -10.3125 8.6875 C-10.869375 8.460625 -11.42625 8.23375 -12 8 C-4.43243243 0 -4.43243243 0 0 0 Z " fill="#EBF9EC" transform="translate(232,110)"/>
<path d="M0 0 C0 0.33 0 0.66 0 1 C-15.74487472 4.44419134 -15.74487472 4.44419134 -23 4 C-23 3.67 -23 3.34 -23 3 C-15.21930149 1.14060121 -8.01701946 -0.41467342 0 0 Z " fill="#A2E2C2" transform="translate(249,363)"/>
<path d="M0 0 C1.32 0.33 2.64 0.66 4 1 C2.90033225 2.29549899 1.79508199 3.58626071 0.6875 4.875 C0.07261719 5.59429687 -0.54226562 6.31359375 -1.17578125 7.0546875 C-3 9 -3 9 -6 11 C-6 9.35 -6 7.7 -6 6 C-5.01 5.67 -4.02 5.34 -3 5 C-1.30117552 2.50240018 -1.30117552 2.50240018 0 0 Z " fill="#6CD29E" transform="translate(206,124)"/>
<path d="M0 0 C0 0.33 0 0.66 0 1 C-7.17859349 3.04061541 -13.52605426 4.37369729 -21 4 C-14.83204838 -0.11196775 -7.23434167 -0.26793858 0 0 Z " fill="#90DCB6" transform="translate(243,75)"/>
<path d="M0 0 C-2.87078299 1.91385532 -5.33411656 2.96432952 -8.5625 4.125 C-9.53316406 4.47820312 -10.50382812 4.83140625 -11.50390625 5.1953125 C-14 6 -14 6 -16 6 C-16 5.34 -16 4.68 -16 4 C-15.34 4 -14.68 4 -14 4 C-14 3.34 -14 2.68 -14 2 C-9.07262981 0.02905192 -5.21979128 -0.1799928 0 0 Z " fill="#F5F1EE" transform="translate(269,100)"/>
<path d="M0 0 C2.22189824 2.22189824 2.92598892 4.08482708 4 7 C1.03 9.475 1.03 9.475 -2 12 C-1.85831863 10.56208484 -1.71148957 9.1246763 -1.5625 7.6875 C-1.48128906 6.88699219 -1.40007812 6.08648437 -1.31640625 5.26171875 C-1 3 -1 3 0 0 Z " fill="#DCF0E6" transform="translate(314,200)"/>
<path d="M0 0 C-2.93394811 2.47212294 -5.23792842 3.53887671 -9 4.25 C-9.845625 4.42015625 -10.69125 4.5903125 -11.5625 4.765625 C-14.01432071 5.00137699 -15.67413687 4.75375194 -18 4 C-16.1291122 3.32187886 -14.25305707 2.6580054 -12.375 2 C-11.33085937 1.62875 -10.28671875 1.2575 -9.2109375 0.875 C-5.98225494 -0.00483564 -3.32755706 -0.15988262 0 0 Z " fill="#80D5AB" transform="translate(221,342)"/>
<path d="M0 0 C0 0.33 0 0.66 0 1 C-2.26805795 1.69809445 -4.53866607 2.38371017 -6.8125 3.0625 C-7.45509766 3.26166016 -8.09769531 3.46082031 -8.75976562 3.66601562 C-13.66015625 5.11328125 -13.66015625 5.11328125 -17 4 C-16.34 4 -15.68 4 -15 4 C-15 3.34 -15 2.68 -15 2 C-9.87080814 -0.10428384 -5.4389165 -0.21755666 0 0 Z " fill="#8BDBB4" transform="translate(272,94)"/>
<path d="M0 0 C0.33 0.99 0.66 1.98 1 3 C0.43410156 3.20496094 -0.13179687 3.40992188 -0.71484375 3.62109375 C-1.44832031 3.89050781 -2.18179688 4.15992188 -2.9375 4.4375 C-4.03384766 4.83775391 -4.03384766 4.83775391 -5.15234375 5.24609375 C-6.98305678 5.85386948 -6.98305678 5.85386948 -8 7 C-9.66617115 7.04063832 -11.33388095 7.042721 -13 7 C-4.25 0 -4.25 0 0 0 Z " fill="#61CB99" transform="translate(247,328)"/>
<path d="M0 0 C1.32 1.65 2.64 3.3 4 5 C2.02 6.32 0.04 7.64 -2 9 C-2.33 8.01 -2.66 7.02 -3 6 C-2.34 6 -1.68 6 -1 6 C-1.95865509 3.66924071 -1.95865509 3.66924071 -5 2 C-3.35 1.34 -1.7 0.68 0 0 Z " fill="#B9B6B4" transform="translate(250,107)"/>
<path d="M0 0 C0.66 0.33 1.32 0.66 2 1 C1.67 1.66 1.34 2.32 1 3 C2.32 3.66 3.64 4.32 5 5 C2.08235 6.9451 0.37462715 7.45276317 -3 8 C-2.34 6.35 -1.68 4.7 -1 3 C-1.66 2.67 -2.32 2.34 -3 2 C-2.01 1.34 -1.02 0.68 0 0 Z " fill="#C4BFBF" transform="translate(216,330)"/>
<path d="M0 0 C-2.85276137 2.93200474 -5.65079784 5.64315404 -9 8 C-9 4 -9 4 -7.3125 1.75 C-4.60609252 -0.29809215 -3.31152874 -0.36794764 0 0 Z " fill="#E6F9ED" transform="translate(261,316)"/>
<path d="M0 0 C0 4.86666667 0 4.86666667 -1 7 C-4.5625 8.75 -4.5625 8.75 -8 10 C-6.34908222 5.70761377 -3.26245434 3.1206085 0 0 Z " fill="#7FD9AE" transform="translate(175,104)"/>
<path d="M0 0 C1.65 0.33 3.3 0.66 5 1 C2.58592302 2.60938465 0.65955563 3.65490738 -2 4.6875 C-2.680625 4.95949219 -3.36125 5.23148437 -4.0625 5.51171875 C-6 6 -6 6 -9 5 C-8.34 5 -7.68 5 -7 5 C-7 4.34 -7 3.68 -7 3 C-3.535 2.505 -3.535 2.505 0 2 C0 1.34 0 0.68 0 0 Z " fill="#8FDBB7" transform="translate(258,357)"/>
<path d="M0 0 C0 0.33 0 0.66 0 1 C-1.74784829 1.36463732 -3.49840502 1.7163078 -5.25 2.0625 C-6.71179688 2.35833984 -6.71179688 2.35833984 -8.203125 2.66015625 C-10.868119 2.98397535 -12.48871723 2.85503199 -15 2 C-9.37129115 -0.93161919 -6.22833095 -1.2019586 0 0 Z " fill="#D8D2D1" transform="translate(200,342)"/>
<path d="M0 0 C2.125 0.375 2.125 0.375 4 1 C4 1.99 4 2.98 4 4 C-0.29 4 -4.58 4 -9 4 C-9 3.67 -9 3.34 -9 3 C-7.88625 2.87625 -6.7725 2.7525 -5.625 2.625 C-1.96896323 2.3534187 -1.96896323 2.3534187 0 0 Z " fill="#A09E9C" transform="translate(239,116)"/>
<path d="M0 0 C0 0.33 0 0.66 0 1 C-1.65 1.33 -3.3 1.66 -5 2 C-5 2.99 -5 3.98 -5 5 C-7.02045442 4.39816251 -9.02111039 3.72693904 -11 3 C-11.33 2.34 -11.66 1.68 -12 1 C-8.0186217 -0.3271261 -4.14954773 -0.06915913 0 0 Z " fill="#92D6B2" transform="translate(177,352)"/>
<path d="M0 0 C0 0.66 0 1.32 0 2 C0.99 2.33 1.98 2.66 3 3 C-1.75 6 -1.75 6 -4 6 C-4.33 4.35 -4.66 2.7 -5 1 C-2 0 -2 0 0 0 Z " fill="#B9B5B4" transform="translate(262,103)"/>
<path d="M0 0 C0.33 0.66 0.66 1.32 1 2 C1.66 2.33 2.32 2.66 3 3 C1.52307692 7.67692308 1.52307692 7.67692308 -1.125 9.3125 C-2.053125 9.6528125 -2.053125 9.6528125 -3 10 C-2.05066101 6.64566891 -1.10251165 3.30753495 0 0 Z " fill="#7CD6A8" transform="translate(196,134)"/>
<path d="M0 0 C3.96 0 7.92 0 12 0 C10 5 10 5 7 7 C7.66 5.02 8.32 3.04 9 1 C6.03 1 3.06 1 0 1 C0 0.67 0 0.34 0 0 Z " fill="#D5D3D1" transform="translate(230,306)"/>
<path d="M0 0 C0.66 0 1.32 0 2 0 C1.34 1.65 0.68 3.3 0 5 C-0.66 5 -1.32 5 -2 5 C-2.66 6.32 -3.32 7.64 -4 9 C-4.66 9 -5.32 9 -6 9 C-5.25 6.0625 -5.25 6.0625 -4 3 C-1.875 2.125 -1.875 2.125 0 2 C0 1.34 0 0.68 0 0 Z " fill="#63CF9C" transform="translate(157,130)"/>
<path d="M0 0 C1.65 0.33 3.3 0.66 5 1 C5 1.66 5 2.32 5 3 C-1.435 3.495 -1.435 3.495 -8 4 C-8 3.67 -8 3.34 -8 3 C-5.36 2.67 -2.72 2.34 0 2 C0 1.34 0 0.68 0 0 Z " fill="#A5DAC0" transform="translate(301,86)"/>
<path d="M0 0 C2.15377564 2.62198774 3.40072174 4.64404172 4 8 C1.5625 7.1875 1.5625 7.1875 -1 6 C-1.33 5.01 -1.66 4.02 -2 3 C-1.34 2.01 -0.68 1.02 0 0 Z " fill="#5E5C5A" transform="translate(286,125)"/>
<path d="M0 0 C3.3 0 6.6 0 10 0 C10 0.99 10 1.98 10 3 C2.25 2.25 2.25 2.25 0 0 Z " fill="#79D5A9" transform="translate(183,361)"/>
<path d="M0 0 C0.66 0.33 1.32 0.66 2 1 C1.52797514 5.24822374 -0.96655518 7.19989709 -4 10 C-3.67 8.68 -3.34 7.36 -3 6 C-2.34 6 -1.68 6 -1 6 C-0.67 4.02 -0.34 2.04 0 0 Z " fill="#77D2A4" transform="translate(309,316)"/>
<path d="M0 0 C0.6875 1.6875 0.6875 1.6875 1 4 C-0.25 6.6875 -0.25 6.6875 -2 9 C-2.99 9.33 -3.98 9.66 -5 10 C-3.66511872 6.40608886 -2.03977277 3.24509304 0 0 Z " fill="#7BD4AC" transform="translate(159,123)"/>
<path d="M0 0 C0.33 0 0.66 0 1 0 C1 2.31 1 4.62 1 7 C-0.32 6.67 -1.64 6.34 -3 6 C-2.67 4.68 -2.34 3.36 -2 2 C-1.34 2 -0.68 2 0 2 C0 1.34 0 0.68 0 0 Z " fill="#312E2D" transform="translate(331,281)"/>
<path d="M0 0 C0.99 0.66 1.98 1.32 3 2 C2.01 3.32 1.02 4.64 0 6 C-0.99 5.67 -1.98 5.34 -3 5 C-3 4.34 -3 3.68 -3 3 C-2.34 3 -1.68 3 -1 3 C-0.67 2.01 -0.34 1.02 0 0 Z " fill="#2A2A28" transform="translate(245,282)"/>
<path d="M0 0 C0.66 0.33 1.32 0.66 2 1 C0.8125 3 0.8125 3 -1 5 C-3.6875 5.25 -3.6875 5.25 -6 5 C-2.25 1.125 -2.25 1.125 0 0 Z " fill="#7ED5AA" transform="translate(197,88)"/>
<path d="M0 0 C0.66 0.33 1.32 0.66 2 1 C2 1.99 2 2.98 2 4 C0.02 4.99 0.02 4.99 -2 6 C-2 3 -2 3 0 0 Z " fill="#B3AFAC" transform="translate(219,328)"/>
<path d="M0 0 C1.65 0 3.3 0 5 0 C5 2.31 5 4.62 5 7 C4.67 6.01 4.34 5.02 4 4 C3.34 4 2.68 4 2 4 C1.34 2.68 0.68 1.36 0 0 Z " fill="#BCC2BD" transform="translate(188,262)"/>
<path d="M0 0 C0 0.66 0 1.32 0 2 C-0.99 2 -1.98 2 -3 2 C-3.33 2.99 -3.66 3.98 -4 5 C-4.99 4.67 -5.98 4.34 -7 4 C-7.33 3.34 -7.66 2.68 -8 2 C-2.25 0 -2.25 0 0 0 Z " fill="#44C486" transform="translate(224,79)"/>
<path d="M0 0 C0.66 0.33 1.32 0.66 2 1 C-0.625 5.875 -0.625 5.875 -4 7 C-3.43628586 3.73045798 -2.50037734 2.17424117 0 0 Z " fill="#59C591" transform="translate(270,307)"/>
<path d="M0 0 C2 1 2 1 2.6328125 2.84765625 C2.79523438 3.57855469 2.95765625 4.30945313 3.125 5.0625 C3.29257812 5.79597656 3.46015625 6.52945312 3.6328125 7.28515625 C3.75398438 7.85105469 3.87515625 8.41695313 4 9 C3.01 9 2.02 9 1 9 C0.67 6.03 0.34 3.06 0 0 Z " fill="#053419" transform="translate(310,292)"/>
<path d="M0 0 C0.66 1.32 1.32 2.64 2 4 C2.66 4 3.32 4 4 4 C3.67 5.65 3.34 7.3 3 9 C0.90250005 6.64031256 0.03094296 5.45383006 -0.1875 2.25 C-0.125625 1.5075 -0.06375 0.765 0 0 Z " fill="#6AD1A1" transform="translate(152,231)"/>
<path d="M0 0 C0.66 0.33 1.32 0.66 2 1 C1.67 2.32 1.34 3.64 1 5 C-1.475 4.01 -1.475 4.01 -4 3 C-3 1 -3 1 0 0 Z " fill="#21201E" transform="translate(327,154)"/>
<path d="M0 0 C0.99 0.33 1.98 0.66 3 1 C2.38125 1.7425 1.7625 2.485 1.125 3.25 C-0.60437281 5.48801188 -1.86106661 7.43739987 -3 10 C-3.36629408 5.72656908 -2.40814077 3.51187196 0 0 Z " fill="#46B881" transform="translate(170,152)"/>
</svg>
